<?xml version="1.0" encoding="UTF-8" standalone="no"?>
<!DOCTYPE svg PUBLIC "-//W3C//DTD SVG 1.1//EN" "http://www.w3.org/Graphics/SVG/1.1/DTD/svg11.dtd">
<svg width="100%" height="100%" viewBox="0 0 1080 1080" version="1.1" xmlns="http://www.w3.org/2000/svg" xmlns:xlink="http://www.w3.org/1999/xlink" xml:space="preserve" xmlns:serif="http://www.serif.com/" style="fill-rule:evenodd;clip-rule:evenodd;stroke-linejoin:round;stroke-miterlimit:2;">
    <g transform="matrix(1,0,0,1,-1289.51,-1259.68)">
        <g id="Artboard1" transform="matrix(1,0,0,1,1289.51,1259.68)">
            <rect x="0" y="0" width="1080" height="1080" style="fill:none;"/>
            <g transform="matrix(1.30871,0,0,1.30871,-194.353,-226.221)">
                <path d="M810.398,186.207C850.18,186.207 888.333,202.01 916.464,230.141C944.594,258.271 960.398,296.424 960.398,336.207L960.398,834.748C960.398,874.53 944.594,912.684 916.464,940.814C888.333,968.944 850.18,984.748 810.398,984.748L311.857,984.748C272.074,984.748 233.921,968.944 205.791,940.814C177.66,912.684 161.857,874.53 161.857,834.748L161.857,336.207C161.857,296.424 177.66,258.271 205.791,230.141C233.921,202.01 272.074,186.207 311.857,186.207L810.398,186.207ZM276.468,862.185L357.6,862.185L357.6,773.867C357.6,754.408 372.27,739.439 391.729,739.439L420.769,739.439C523.756,739.439 592.314,677.766 592.314,584.359C592.314,478.977 523.756,423.293 420.769,423.293L276.468,423.293L276.468,862.185ZM357.6,643.936L357.6,518.795C357.6,502.928 369.875,491.851 388.736,491.851L408.495,491.851C470.467,491.851 511.482,525.681 511.482,582.563C511.482,637.05 470.467,670.88 408.495,670.88L388.736,670.88C369.875,670.88 357.6,659.803 357.6,643.936Z"/>
            </g>
        </g>
    </g>
</svg>
