<svg viewBox="0 0 1024 1024" xmlns="http://www.w3.org/2000/svg" xml:space="preserve" fill="currentColor"><circle cx="514.8" cy="511.797" r="215.78"/><path d="M494.07 8.729a19.98 19.98 0 0 1 20.709 19.966c.02 29.196.02 82.549.02 111.216 0 10.659-8.36 19.446-19.006 19.975-185.811 9.848-333.435 163.64-333.435 351.911 0 194.517 157.923 352.441 352.441 352.441 163.305 0 304.302-111.993 342.452-269.102 2.484-10.345 12.639-16.928 23.096-14.973 28.181 5.245 80.621 15.049 109.32 20.415a20 20 0 0 1 15.834 24.067c-52.281 227.691-255.262 390.639-490.702 390.639-277.882 0-503.487-225.605-503.487-503.487 0-271.125 214.301-492.196 482.757-503.068Z"/><path d="M1012.47 435.481a19.98 19.98 0 0 1-17.548 22.786c-29.019 3.257-82.052 9.168-110.537 12.342-10.596 1.18-20.256-6.159-21.958-16.684a352.1 352.1 0 0 0-71.186-160.748c-6.642-8.319-5.59-20.387 2.391-27.431 21.469-18.989 61.476-54.299 83.37-73.622a20.004 20.004 0 0 1 28.701 2.313 503.75 503.75 0 0 1 106.767 241.046Z"/><circle cx="691.864" cy="123.328" r="75.523"/></svg>